<svg xmlns="http://www.w3.org/2000/svg" viewBox="0 0 320 48" role="img" aria-label="Lokf’┐Įhrerzentrum.de" fill="none">
  <style>
    .wm { font-family: 'Montserrat', 'Arial Black', system-ui, sans-serif; font-weight: 900; font-stretch: condensed; letter-spacing: -0.5px; }
    .wm-nav { fill: #0F1B3D; }
    .wm-red { fill: #DC2626; }
    .wm-mute { fill: #6B7280; }
  </style>

  <!-- Mark -->
  <g transform="translate(0,0)">
    <circle cx="24" cy="24" r="23" fill="#0F1B3D"/>
    <circle cx="24" cy="24" r="22.4" fill="none" stroke="#DC2626" stroke-width="1.6"/>
    <path d="M11 19 H26 a5 5 0 0 1 5 5 v4 H11 z" fill="#FFFFFF"/>
    <path d="M14 21 H25 a3 3 0 0 1 3 3 v0.6 H14 z" fill="#0F1B3D"/>
    <rect x="10" y="29.6" width="22" height="1.8" rx="0.9" fill="#DC2626"/>
    <circle cx="15" cy="34" r="1.6" fill="#FFFFFF"/>
    <circle cx="27" cy="34" r="1.6" fill="#FFFFFF"/>
    <path d="M34 21 l4 0 M34 24 l6 0 M34 27 l3.5 0" stroke="#DC2626" stroke-width="1.6" stroke-linecap="round"/>
  </g>

  <!-- Wordmark -->
  <text class="wm wm-nav" x="60" y="30" font-size="22">LOKF’┐ĮHRER</text>
  <text class="wm wm-red" x="187" y="30" font-size="22">ZENTRUM</text>
  <text class="wm wm-mute" x="290" y="30" font-size="14">.de</text>
</svg>
